<svg xmlns="http://www.w3.org/2000/svg" width="50" height="50" viewBox="0 0 50 50">
  <g id="Group_5176" data-name="Group 5176" transform="translate(-396 -325)">
    <circle id="Ellipse_59" data-name="Ellipse 59" cx="25" cy="25" r="25" transform="translate(396 325)" fill="#097b87"/>
    <g id="Work" transform="translate(405.773 336.834)">
      <path id="Stroke_1" data-name="Stroke 1" d="M0,0S.22,2.691.271,3.539A5.918,5.918,0,0,0,1.512,6.83,4.594,4.594,0,0,0,5.4,8.525c1.915,0,15.84,0,17.755,0a4.594,4.594,0,0,0,3.884-1.7,5.932,5.932,0,0,0,1.243-3.291c.05-.848.269-3.539.269-3.539" transform="translate(0.084 19.701)" fill="none" stroke="#fff" stroke-linecap="round" stroke-linejoin="round" stroke-miterlimit="10" stroke-width="2"/>
      <path id="Stroke_3" data-name="Stroke 3" d="M0,3.992V3.418A3.417,3.417,0,0,1,3.418,0h4a3.418,3.418,0,0,1,3.418,3.418l0,.574" transform="translate(8.895 0)" fill="none" stroke="#fff" stroke-linecap="round" stroke-linejoin="round" stroke-miterlimit="10" stroke-width="2"/>
      <path id="Stroke_5" data-name="Stroke 5" d="M.5,2V0" transform="translate(13.812 19.558)" fill="none" stroke="#fff" stroke-linecap="round" stroke-linejoin="round" stroke-miterlimit="10" stroke-width="2"/>
      <path id="Stroke_7" data-name="Stroke 7" d="M0,4.734V10.1a25.275,25.275,0,0,0,10.431,3.873,3.994,3.994,0,0,1,7.717.015A25.273,25.273,0,0,0,28.623,10.1V4.734A4.723,4.723,0,0,0,23.891,0H4.748A4.736,4.736,0,0,0,0,4.734Z" transform="translate(0 3.995)" fill="none" stroke="#fff" stroke-linecap="round" stroke-linejoin="round" stroke-miterlimit="10" stroke-width="2"/>
    </g>
    <ellipse id="Ellipse_60" data-name="Ellipse 60" cx="6" cy="6.5" rx="6" ry="6.5" transform="translate(429 336)" fill="#097b87"/>
    <g id="Group_1565" data-name="Group 1565" transform="translate(431.368 336.834)">
      <path id="Line_185" d="M.476,0V8.926" transform="translate(3.991 0)" fill="#fff" stroke="#fff" stroke-linecap="round" stroke-linejoin="round" stroke-miterlimit="10" stroke-width="2"/>
      <path id="Line_186" d="M8.934.476H0" transform="translate(0 3.987)" fill="#fff" stroke="#fff" stroke-linecap="round" stroke-linejoin="round" stroke-miterlimit="10" stroke-width="2"/>
    </g>
  </g>
</svg>
