<svg xmlns="http://www.w3.org/2000/svg" xmlns:xlink="http://www.w3.org/1999/xlink" width="77.856" height="69.384" viewBox="0 0 77.856 69.384">
  <defs>
    <linearGradient id="linear-gradient" x1="-3543.167" y1="-2197.907" x2="-3544.238" y2="-2197.907" gradientUnits="objectBoundingBox">
      <stop offset="0.025" stop-color="#075b6b"/>
      <stop offset="0.191" stop-color="#0f777b"/>
      <stop offset="0.39" stop-color="#17928b"/>
      <stop offset="0.505" stop-color="#1a9d92"/>
      <stop offset="0.638" stop-color="#16918b"/>
      <stop offset="0.873" stop-color="#0e7379"/>
      <stop offset="1" stop-color="#09606e"/>
    </linearGradient>
    <clipPath id="clip-path">
      <rect id="SVGID" width="3.937" height="6.749" transform="translate(0 3.674) rotate(-68.943)" fill="#fff"/>
    </clipPath>
    <clipPath id="clip-path-2">
      <rect id="SVGID-2" data-name="SVGID" width="4.255" height="7.293" transform="translate(0 3.97) rotate(-68.943)" fill="none"/>
    </clipPath>
    <linearGradient id="linear-gradient-2" x1="28.221" y1="-15.465" x2="30.205" y2="-15.465" xlink:href="#linear-gradient"/>
    <linearGradient id="linear-gradient-3" x1="84.025" y1="-15.478" x2="88.981" y2="-15.478" xlink:href="#linear-gradient"/>
    <linearGradient id="linear-gradient-4" x1="25.79" y1="-28.92" x2="26.793" y2="-28.92" xlink:href="#linear-gradient"/>
    <linearGradient id="linear-gradient-5" x1="-728.078" y1="334.975" x2="-727.127" y2="334.975" gradientUnits="objectBoundingBox">
      <stop offset="0" stop-color="#8c8c8c"/>
      <stop offset="1" stop-color="#fff"/>
    </linearGradient>
  </defs>
  <g id="Group_11250" data-name="Group 11250" transform="translate(-601.001 -1054.762)">
    <g id="Group_5170" data-name="Group 5170" transform="translate(591.263 1030.66)">
      <g id="Group_1559" data-name="Group 1559" transform="translate(9.738 24.102)">
        <path id="Path_1450" data-name="Path 1450" d="M181.084,162.533h-4.758a21.033,21.033,0,0,1-20.077,20.075v5.242a26.1,26.1,0,0,0,2.811-.253l1.3,3.493,6.178-1.758-.744-3.712a25.619,25.619,0,0,0,5.35-3.226l2.937,2.5,4.542-4.539-2.578-3.019a25.919,25.919,0,0,0,3.048-5.319l3.962.793,1.755-6.176-3.9-1.453A25.867,25.867,0,0,0,181.084,162.533Z" transform="translate(-113.04 -121.706)" fill="#fff"/>
        <path id="Path_1451" data-name="Path 1451" d="M31,162.52H25.939a26.446,26.446,0,0,0,.193,2.767l-3.618,1.345.642,2.257H18.889a1.923,1.923,0,1,0,0,1.029h4.559l.822,2.89,3.689-.739a25.034,25.034,0,0,0,1.57,3.074H13.505a1.923,1.923,0,1,0,0,1.029H30.168q.453.685.951,1.348L28.7,180.353l4.541,4.541,2.795-2.387a25.99,25.99,0,0,0,5.469,3.235l-.718,3.584,6.175,1.755,1.284-3.45a26.408,26.408,0,0,0,2.827.222V182.6A21.034,21.034,0,0,1,31,162.52Z" transform="translate(-9.738 -121.697)" fill="#fff"/>
        <g id="Group_1558" data-name="Group 1558" transform="translate(6.592 0)">
          <g id="Group_1524" data-name="Group 1524" transform="translate(0 11.368)">
            <g id="Group_1518" data-name="Group 1518" transform="translate(8.187 9.947)">
              <path id="Path_1452" data-name="Path 1452" d="M68.171,104.464l-8.323-4.153s.08-.59.176-1.189c.117-.595.235-1.189.235-1.189s.114-.106.293-.258l.666-.543c.473-.4.977-.755.977-.755l7.614,5.343-.08.112c-.049.073-.13.169-.207.3-.155.257-.387.584-.586.931l-.292.509-.136.233-.109.216Zm-6.745-4,.233-.449.555-.965c.2-.353.432-.685.591-.943l.273-.426-.548-.369-.28.436c-.163.264-.4.6-.6.965l-.567.987-.238.459Zm1.034.541.224-.431.533-.926c.189-.34.415-.658.567-.906l.262-.409-.549-.37-.268.419c-.156.254-.387.58-.581.927l-.546.948-.229.442Zm1.033.541.214-.414.511-.888c.181-.326.4-.63.544-.868l.251-.393-.548-.369-.257.4c-.15.244-.371.556-.557.89l-.523.91-.219.424Zm1.034.541.2-.4.489-.849c.173-.312.381-.6.521-.831l.24-.376-.549-.369-.246.385c-.143.234-.356.532-.534.852l-.5.871-.21.406Zm1.033.541.195-.378.467-.811c.165-.3.365-.575.5-.793l.229-.359-.548-.369-.235.369c-.137.223-.341.509-.511.814l-.48.833-.2.388Zm1.034.541.185-.36.445-.772c.156-.284.347-.548.474-.756l.217-.342-.549-.369-.224.352c-.13.213-.326.484-.487.776l-.457.794-.191.37Zm1.033.541.176-.342.423-.734c.148-.27.331-.52.45-.718l.206-.325-.549-.37-.213.335c-.123.2-.311.461-.464.739l-.436.756-.181.353Z" transform="translate(-59.848 -96.376)" fill="#fff"/>
            </g>
            <g id="Group_1519" data-name="Group 1519" transform="translate(10.327)">
              <path id="Path_1453" data-name="Path 1453" d="M77.37,75.025,67.1,64.588l1.052-.994c.541-.48,1.095-.947,1.095-.947l9.395,11.214-.2.177c-.12.108-.291.241-.446.391ZM69.081,65.6l.448-.423c.11-.108.229-.206.316-.282l.146-.125L69.053,63.7l-.152.131c-.091.079-.215.181-.33.293l-.467.44Zm1.407,1.494.421-.4c.1-.1.215-.194.3-.265l.137-.118-.938-1.071-.143.124c-.086.074-.2.17-.311.276l-.44.415ZM71.9,68.587l.395-.372c.1-.095.2-.182.278-.248l.129-.11-.939-1.071-.135.116c-.081.07-.19.16-.291.26l-.413.39ZM73.3,70.079l.367-.347c.09-.089.187-.17.259-.231l.12-.1-.939-1.07-.126.108c-.076.065-.177.15-.272.243l-.386.364Zm1.41,1.491.34-.321c.083-.082.173-.158.24-.214l.111-.095-.94-1.069-.117.1c-.071.06-.165.139-.253.226l-.359.339Zm1.41,1.491.313-.3c.077-.076.158-.146.221-.2l.1-.087-.941-1.069-.109.093c-.066.055-.153.129-.234.209l-.332.314Z" transform="translate(-67.104 -62.647)" fill="#fff"/>
            </g>
            <g id="Group_1520" data-name="Group 1520" transform="translate(0 11.559)">
              <path id="Path_1454" data-name="Path 1454" d="M46.993,112.658l-6.457-1.543L34.071,109.6s-.188-.448-.417-1.135c-.118-.345-.253-.753-.394-1.2s-.26-.919-.389-1.407c-.268-.978-.443-1.968-.59-2.739-.075-.386-.109-.7-.144-.927l-.048-.355,8.111,3.54,8.087,3.591-.23.5-.2.515-1.2-.462-.095.252c-.06.15-.134.352-.194.558l-.18.563c-.05.153-.081.256-.081.256l1.2.361-.159.569-.113.39C47.007,112.585,46.993,112.658,46.993,112.658Zm-2.443-4.5-.213.569-.148.39a1.832,1.832,0,0,0-.063.179l1.367.482s.02-.069.06-.168l.139-.368.2-.536Zm-2.066-.84-.234.619-.161.425a1.817,1.817,0,0,0-.068.2l1.368.48a1.816,1.816,0,0,1,.065-.185l.153-.4.221-.586Zm-2.067-.838-.254.669-.175.46c-.049.125-.073.211-.073.211l1.369.478a1.87,1.87,0,0,1,.07-.2l.166-.437.241-.636Zm-2.069-.834-.274.72-.188.5c-.05.135-.077.228-.077.228l1.369.476s.025-.088.074-.217l.179-.472.261-.687Zm-2.647.713,1.37.474s.029-.094.079-.234l.193-.507.282-.737-1.346-.539-.294.77-.2.53Zm8.213,3.6-.059.181c-.034.109-.086.251-.121.4l-.156.586,1.4.377.146-.553c.032-.139.083-.273.114-.375l.055-.17Zm-2.125-.68-.064.2c-.038.118-.092.274-.131.435l-.171.638,1.4.374.162-.6c.036-.152.089-.3.124-.412l.06-.186Zm-2.126-.677-.069.212c-.042.127-.1.3-.141.471l-.187.69,1.4.372.177-.656c.041-.165.095-.326.135-.448l.066-.2Zm-2.127-.674-.074.229c-.047.136-.1.32-.151.507l-.2.743,1.4.37.192-.709c.045-.179.1-.353.145-.484l.071-.218Zm-2.128-.67-.08.245c-.05.146-.109.344-.161.543l-.216.795,1.4.368.207-.761c.049-.191.106-.38.154-.519l.076-.234Z" transform="translate(-32.089 -101.842)" fill="#fff"/>
            </g>
            <g id="Group_1521" data-name="Group 1521" transform="translate(10.27 7.453)">
              <path id="Path_1455" data-name="Path 1455" d="M75.2,95.178l-4.154-3.223-4.136-3.248.656-.165c.392-.095.9-.22,1.429-.311s1.029-.184,1.414-.236l.645-.076,2.821,2.744,2.833,2.732-.244.254-.229.268-.545-.491-.339.37a3.362,3.362,0,0,0-.227.259l-.1.121.587.482Zm-4.114-5.458.27-.3.186-.206a1.09,1.09,0,0,1,.087-.091L71,88.533s-.038.036-.09.093l-.191.212-.278.308Zm.991.881.257-.285.177-.2c.047-.054.082-.087.082-.087l-.627-.59a1.076,1.076,0,0,0-.086.09l-.183.2-.266.294Zm.992.879.491-.541-.628-.59s-.034.032-.081.086l-.174.192-.253.28Zm.992.878.465-.513-.628-.589-.482.531Zm.995.876.44-.485-.63-.587-.456.5Zm-4.8-2.553.256-.312c.125-.158.262-.307.262-.307l-.652-.563s-.141.153-.27.316l-.263.322Zm1.029.835.244-.3.168-.2.081-.089-.653-.562-.083.092-.174.211-.252.307Zm1.03.834.232-.283.159-.194.077-.085-.654-.561-.08.087-.165.2-.24.292Zm1.032.832.22-.267.151-.184c.042-.05.072-.081.072-.081l-.654-.559-.075.083-.156.191-.228.277Zm1.032.831.209-.253.143-.174a.757.757,0,0,1,.068-.077l-.655-.559s-.03.03-.071.079l-.148.181-.216.262Z" transform="translate(-66.911 -87.919)" fill="#fff"/>
            </g>
            <g id="Group_1522" data-name="Group 1522" transform="translate(3.747 21.216)">
              <path id="Path_1456" data-name="Path 1456" d="M55.309,140.968l-5.257-.079L44.8,140.78l.44-1.05c.125-.311.3-.669.485-1.046s.366-.775.592-1.161l.632-1.119.6-.937c.174-.27.316-.493.431-.644l.172-.238,3.829.907,3.833.89-.025.107c-.015.064-.038.149-.05.236l-.06.346-.72-.141-.1.515c-.056.31-.1.729-.161,1.145-.044.418-.07.84-.1,1.154-.014.158-.01.291-.015.383l0,.145.759.032Zm-2.087-2.4-.067.677.858.073.065-.653Zm.156-1.232-.1.672.853.117.1-.647Zm-4.28-1.221.158-.79-.842-.186-.162.814Zm1.3.247.15-.753-.842-.184-.155.777Zm1.3.245.144-.715L51,135.706l-.148.739Zm1.3.243.137-.677-.842-.182-.142.7Zm1.3.241.129-.64-.842-.181-.134.665Zm-5.647,3.255s.007-.237.017-.594.061-.829.093-1.3c.009-.118.019-.237.028-.353s.03-.23.045-.34c.029-.22.056-.426.079-.6s.042-.324.056-.426.027-.161.027-.161l-.849-.148-.029.165c-.014.106-.034.258-.057.44l-.082.621c-.015.114-.031.231-.046.35s-.02.242-.029.364c-.034.488-.09.975-.1,1.342l-.018.612Zm1.324.049s.007-.227.017-.567.059-.79.089-1.242c.015-.226.036-.451.069-.661l.076-.574.053-.406a1.238,1.238,0,0,1,.025-.153l-.849-.146s-.013.057-.027.158l-.055.42-.078.593-.044.335c-.009.114-.018.231-.027.347-.031.466-.088.93-.091,1.281l-.017.584Zm1.325.047s.012-.864.1-1.721c.022-.431.1-.854.137-1.174.021-.16.038-.293.05-.386a1.277,1.277,0,0,1,.023-.146l-.849-.145a1.188,1.188,0,0,0-.024.151c-.013.1-.031.234-.052.4-.036.331-.119.769-.142,1.214s-.086.886-.086,1.221-.017.556-.017.556Zm1.325.044s.006-.2.015-.511.053-.713.078-1.121.095-.809.129-1.114c.019-.151.036-.278.047-.367s.021-.138.021-.138l-.849-.143a1.349,1.349,0,0,0-.022.143c-.011.092-.029.223-.049.379-.035.314-.113.73-.134,1.153-.017.211-.035.421-.05.619-.009.1-.017.194-.024.285s0,.177-.007.257c-.009.317-.015.529-.015.529Zm1.324.043.032-.657-.86-.052-.033.681Z" transform="translate(-44.795 -134.584)" fill="#fff"/>
            </g>
            <g id="Group_1523" data-name="Group 1523" transform="translate(19.612 5.187)">
              <path id="Path_1457" data-name="Path 1457" d="M101.773,80.234l2.209,3.819-.359.2-.049-.082a.9.9,0,0,0-.088.053l-.227.147c-.186.124-.443.276-.688.446l-.668.476c-.094.062-.164.122-.216.163l-.08.064.058.076-.325.256-2.751-3.449.158-.279c.1-.165.22-.4.36-.616l.565-.879s.128-.038.329-.076l.724-.146c.26-.053.519-.1.719-.129Zm-1.781,1.212a.248.248,0,0,0,.334.1.258.258,0,0,0,.026-.351.248.248,0,0,0-.337-.1A.257.257,0,0,0,99.992,81.446Zm2.978,1.73a.875.875,0,0,0-.092.057l-.239.155c-.2.131-.467.291-.725.47l-.705.5c-.1.065-.173.129-.227.172l-.085.067.4.525.082-.066c.053-.041.125-.1.221-.167l.684-.487c.251-.174.514-.329.7-.456l.232-.151a.89.89,0,0,1,.09-.055Zm-.6-1a1,1,0,0,0-.1.059l-.251.163c-.207.137-.491.306-.762.494l-.741.527c-.1.069-.182.136-.239.18l-.089.071.4.524.086-.069c.055-.043.132-.108.232-.176l.72-.512c.264-.183.541-.347.741-.481l.244-.158a.968.968,0,0,1,.094-.058Zm-.6-1a1.085,1.085,0,0,0-.1.062l-.264.17c-.217.143-.514.321-.8.519l-.777.553c-.108.072-.191.142-.251.189l-.093.074.4.524.091-.072c.058-.045.139-.113.244-.184l.756-.538c.278-.192.568-.365.778-.5l.257-.166a.953.953,0,0,1,.1-.06Z" transform="translate(-98.589 -80.234)" fill="#fff"/>
            </g>
          </g>
          <g id="Group_1550" data-name="Group 1550" transform="translate(19.901)">
            <g id="Group_1525" data-name="Group 1525" transform="translate(13.938 7.428)">
              <path id="Path_1458" data-name="Path 1458" d="M147.392,59.4l-.564-9.285.346-.146.772-.287.785-.287.361-.112,1.174.418c.58.233,1.143.474,1.143.474l-.8,9.267-.5-.038c-.3-.037-.7-.024-1.105-.042l-.3-.009-.291.01-.516.013A4.584,4.584,0,0,0,147.392,59.4Zm.088-7.839.506-.013c.3,0,.709-.029,1.114-.009l1.114.028.5.038.045-.659-.516-.039-1.138-.029c-.414-.02-.828,0-1.138.009l-.517.013Zm.049,1.166.487-.012c.292,0,.681-.028,1.07-.009l1.07.027.485.037.044-.66-.5-.037-1.095-.027c-.4-.02-.8.005-1.095.009l-.5.012Zm.049,1.165.467-.012c.28,0,.653-.028,1.027-.008l1.027.025.465.035.045-.659-.476-.037-1.051-.026c-.382-.019-.765.005-1.051.009l-.478.012Zm.049,1.166.447-.011c.268,0,.625-.027.983-.008l.983.024.445.034.044-.66-.456-.035-1.007-.024c-.366-.019-.733,0-1.008.008l-.458.011Zm.048,1.165.427-.01c.256,0,.6-.027.94-.008l.939.022.425.034.045-.659-.436-.034-.964-.023c-.35-.019-.7,0-.964.008l-.438.011Zm.048,1.166.407-.009c.245,0,.57-.027.9-.007l.9.021.4.032.045-.66-.416-.033-.92-.022c-.335-.019-.669.005-.92.008l-.419.01Zm.049,1.166.387-.009c.232,0,.542-.026.852-.007l.852.02.385.031.045-.66-.4-.032-.877-.02c-.319-.019-.637,0-.877.008l-.4.009Z" transform="translate(-146.828 -49.287)" fill="#fff"/>
            </g>
            <g id="Group_1526" data-name="Group 1526" transform="translate(6.131)">
              <path id="Path_1459" data-name="Path 1459" d="M124.157,42.428l-1.884-6.367L120.358,29.7s.3-.372.774-.936c.239-.275.528-.586.844-.926s.661-.71,1.022-1.048.729-.692,1.084-1.017.7-.6.994-.853c.6-.493,1.011-.82,1.011-.82l.984,8.8c.464,4.4.929,8.8.929,8.8l-.173.013-.378.05-.551.068-.2-1.268a2.351,2.351,0,0,0-.265.046l-.581.115c-.212.041-.424.078-.579.123l-.26.066.286,1.221-.576.131Zm2.68-4.36-.6.084-.6.116.264,1.426.562-.11.568-.079Zm-.3-2.21-.656.091-.65.126L125.5,37.5l.616-.119.621-.087Zm-.307-2.21-.709.1-.7.135.269,1.425.668-.129.674-.094Zm-.311-2.209-.762.109-.757.144.271,1.424.722-.138.728-.1ZM123.978,29.5l.274,1.424.775-.147.781-.111-.2-1.436s-.408.053-.815.118Zm.979,8.9-1.178.291.373,1.4,1.11-.275Zm-.47-2.18-1.284.315.374,1.4,1.215-.3Zm-.474-2.18-1.389.341.377,1.4,1.321-.324Zm-.477-2.179-.748.182-.514.125c-.14.033-.233.06-.233.06l.379,1.4,1.426-.35Zm-.481-2.178-.8.193-.55.134c-.15.035-.249.065-.249.065l.382,1.4s.094-.028.238-.062l.526-.128.766-.186Z" transform="translate(-120.358 -24.102)" fill="#fff"/>
            </g>
            <g id="Group_1527" data-name="Group 1527" transform="translate(18.422 7.241)">
              <path id="Path_1460" data-name="Path 1460" d="M162.032,59.074l.7-5.212c.367-2.6.735-5.208.735-5.208l.472.477c.281.278.639.69.985,1.085s.676.792.912,1.108l.389.515-.962,3.816-.946,3.82-.342-.08c-.17-.045-.343-.072-.343-.072l.151-.718-.979-.2-.123.75Zm2.658-6.3.395.079.391.1.2-.838-.4-.1-.407-.081Zm-.266,1.3.376.075.372.093.2-.839-.384-.1-.389-.077Zm-.264,1.3.358.071c.178.04.354.089.354.089l.2-.84s-.181-.049-.366-.091l-.37-.073Zm-.262,1.3.339.068c.169.036.335.083.335.083l.194-.839s-.173-.048-.348-.087l-.351-.07Zm-.26,1.3.32.064c.081.014.159.037.218.053l.1.026.193-.839-.1-.027c-.062-.015-.143-.041-.226-.055l-.332-.066Zm-.194-5.432.125.018c.075.011.175.024.273.047l.4.08.16-.847-.407-.081c-.1-.022-.2-.038-.282-.049l-.128-.019Zm-.206,1.309.119.018c.072.011.167.022.261.044l.376.076.159-.846-.389-.078c-.1-.022-.2-.035-.269-.046l-.123-.018Zm-.2,1.31s.181.023.361.057l.358.073.157-.847-.37-.075c-.092-.022-.186-.031-.256-.043l-.117-.017Zm-.2,1.31s.172.023.342.053l.339.07.156-.847-.351-.073c-.176-.033-.354-.056-.354-.056Zm-.2,1.31.324.05.32.068.155-.847-.332-.07c-.167-.03-.336-.052-.336-.052Z" transform="translate(-162.032 -48.654)" fill="#fff"/>
            </g>
            <g id="Group_1528" data-name="Group 1528" transform="translate(0 10.843)">
              <path id="Path_1461" data-name="Path 1461" d="M104.672,70.4l-2.565-4.592L99.568,61.2l.31-.047c.2-.032.476-.072.817-.1l1.146-.11c.42-.026.867-.042,1.305-.06s.882-.005,1.288,0,.782.012,1.106.04l1.064.077,1.125,3.773,1.142,3.768-.664.225-.237-.694s-.2.058-.492.179-.69.249-1.069.432l-.564.248c-.18.08-.34.171-.482.239l-.47.234.352.673-.091.047-.2.114Zm1.026-3-.313.132-.216.089a.775.775,0,0,0-.1.044l.366.78a.9.9,0,0,1,.093-.043l.208-.086.3-.126Zm1.143-.479-.638.231.325.8.615-.222Zm-1.085-4.334.769-.241-.259-.822-.792.25Zm.436,1.251.732-.229-.26-.821-.756.237Zm.438,1.251.7-.217-.261-.821-.72.225Zm.44,1.251.659-.205-.262-.821-.683.213Zm.442,1.25a.836.836,0,0,1,.1-.033l.215-.065.312-.1-.264-.82-.323.1-.223.068a1.034,1.034,0,0,0-.1.033Zm-5.636-3.268.142-.08.384-.194c.32-.155.734-.389,1.172-.572s.862-.4,1.2-.516l.552-.215-.3-.81-.569.221c-.346.123-.787.336-1.235.532s-.879.429-1.209.59l-.4.2c-.1.049-.147.081-.147.081Zm.621,1.171.135-.077.366-.184c.306-.147.7-.372,1.117-.546s.82-.381,1.14-.493l.526-.2-.3-.809-.543.211c-.33.117-.75.323-1.178.508s-.838.41-1.153.562l-.378.191-.14.079Zm.623,1.171.128-.073.348-.175.491-.249.277-.141.293-.13c.4-.168.778-.363,1.083-.469l.5-.194-.3-.808-.517.2c-.315.11-.712.309-1.12.485s-.8.393-1.1.536l-.36.181-.133.076Zm.624,1.17.122-.07.329-.167.466-.236.262-.134.278-.123c.374-.158.738-.346,1.026-.445l.474-.183-.3-.808-.491.19c-.3.1-.675.3-1.063.461l-.288.127-.272.139-.482.244-.341.173-.126.072ZM104.369,69a3.111,3.111,0,0,1,.291-.149l.3-.14-.385-.771-.306.146c-.156.069-.3.155-.3.155Z" transform="translate(-99.568 -60.868)" fill="#fff"/>
            </g>
            <g id="Group_1529" data-name="Group 1529" transform="translate(23.682 14.874)">
              <path id="Path_1462" data-name="Path 1462" d="M184.951,76.216l-2.209,3.819-.357-.207.046-.084a3.454,3.454,0,0,0-.328-.176l-.728-.375-.746-.336c-.2-.1-.341-.148-.341-.148l-.037.089-.384-.15,1.615-4.105.322,0c.194,0,.454-.007.71.008l1.046.046.716.8c.179.194.344.405.468.561Zm-1.936-.941a.224.224,0,1,0,.4.191.226.226,0,1,0-.4-.191ZM183,78.723a3.834,3.834,0,0,0-.346-.186l-.767-.394-.786-.355c-.212-.1-.359-.156-.359-.156l-.254.61s.143.052.349.152l.763.344.745.383a3.772,3.772,0,0,1,.335.18Zm.565-1.021s-.14-.088-.363-.2l-.807-.415-.827-.373c-.223-.106-.378-.164-.378-.164l-.254.611s.151.056.368.159l.8.363.785.4c.217.1.353.19.353.19Zm.565-1.021s-.147-.092-.381-.205l-.847-.435-.867-.392c-.234-.111-.4-.172-.4-.172l-.254.61s.158.059.386.167l.844.381.824.423c.228.11.371.2.371.2Z" transform="translate(-179.868 -74.535)" fill="#fff"/>
            </g>
            <g id="Group_1549" data-name="Group 1549" transform="translate(21.734 3.94)">
              <g id="Group_1542" data-name="Group 1542" transform="translate(0)">
                <g id="Group_1530" data-name="Group 1530" transform="translate(0.304 0.539)">
                  <rect id="Rectangle_1653" data-name="Rectangle 1653" width="14.763" height="0.293" transform="translate(0 13.777) rotate(-68.943)" fill="#fff"/>
                </g>
                <g id="Group_1538" data-name="Group 1538" transform="translate(5.561)">
                  <g id="Group_1531" data-name="Group 1531" transform="translate(0.184 0.113)">
                    <path id="Path_1463" data-name="Path 1463" d="M192.8,37.845l.216.083.014.075-.292-.112Z" transform="translate(-192.738 -37.845)" fill="#fff"/>
                  </g>
                  <g id="Group_1532" data-name="Group 1532" transform="translate(0.245 0.052)">
                    <rect id="Rectangle_1654" data-name="Rectangle 1654" width="0.065" height="0.232" transform="translate(0 0.061) rotate(-68.943)" fill="#fff"/>
                  </g>
                  <g id="Group_1533" data-name="Group 1533" transform="translate(0.322)">
                    <path id="Path_1464" data-name="Path 1464" d="M193.315,37.576l-.11-.042.088-.073" transform="translate(-193.205 -37.461)" fill="#fff"/>
                  </g>
                  <g id="Group_1534" data-name="Group 1534" transform="translate(0.021 0.523)">
                    <rect id="Rectangle_1655" data-name="Rectangle 1655" width="0.065" height="0.312" transform="translate(0 0.061) rotate(-68.943)" fill="#fff"/>
                  </g>
                  <g id="Group_1535" data-name="Group 1535" transform="translate(0 0.473)">
                    <path id="Path_1465" data-name="Path 1465" d="M192.115,39.064l.4.155-.067.008-.291-.112Z" transform="translate(-192.115 -39.064)" fill="#fff"/>
                  </g>
                  <g id="Group_1536" data-name="Group 1536" transform="translate(0.117 0.16)">
                    <path id="Path_1466" data-name="Path 1466" d="M192.513,38.011l.4.155-.044-.05L192.579,38Z" transform="translate(-192.513 -38.003)" fill="#fff"/>
                  </g>
                  <g id="Group_1537" data-name="Group 1537" transform="translate(0 0.168)">
                    <rect id="Rectangle_1656" data-name="Rectangle 1656" width="0.327" height="0.431" transform="translate(0 0.305) rotate(-68.943)" fill="#fff"/>
                  </g>
                </g>
                <g id="Group_1541" data-name="Group 1541" transform="translate(0 14.183)">
                  <g id="Group_1539" data-name="Group 1539" transform="translate(0 0)">
                    <rect id="Rectangle_1657" data-name="Rectangle 1657" width="0.178" height="0.852" transform="translate(0 0.166) rotate(-68.943)" fill="#fff"/>
                  </g>
                  <g id="Group_1540" data-name="Group 1540" transform="translate(0 0.166)">
                    <line id="Line_138" data-name="Line 138" x1="0.795" y1="0.306" fill="url(#linear-gradient)"/>
                  </g>
                </g>
              </g>
              <g id="Group_1548" data-name="Group 1548" transform="translate(4.305 0.788)">
                <g id="Group_1546" data-name="Group 1546" transform="translate(0.139 0)">
                  <g id="Jordan" transform="translate(0)">
                    <g id="Group_1545" data-name="Group 1545">
                      <g id="Group_1544" data-name="Group 1544">
                        <g id="Group_1543" data-name="Group 1543" clip-path="url(#clip-path)">
                          <rect id="Rectangle_1658" data-name="Rectangle 1658" width="3.937" height="6.749" transform="translate(0 3.674) rotate(-68.943)" fill="#fff"/>
                          <rect id="Rectangle_1659" data-name="Rectangle 1659" width="1.312" height="6.749" transform="translate(0.472 2.449) rotate(-68.943)" fill="#fff"/>
                          <rect id="Rectangle_1660" data-name="Rectangle 1660" width="1.312" height="6.749" transform="translate(0 3.674) rotate(-68.943)" fill="#fff"/>
                          <path id="Path_1467" data-name="Path 1467" d="M189.272,40.133l-1.415,3.674,4.382-.422Z" transform="translate(-187.857 -40.133)" fill="#fff"/>
                          <path id="Path_1468" data-name="Path 1468" d="M193.541,46.954l-.112.122-.131-.1.026.164-.162.038.144.082-.071.15.154-.061.074.149.048-.159.162.036-.094-.137.129-.1-.166-.012Z" transform="translate(-191.597 -44.943)" fill="#fff"/>
                        </g>
                      </g>
                    </g>
                  </g>
                </g>
              </g>
            </g>
          </g>
          <g id="Group_1557" data-name="Group 1557" transform="translate(46.456 11.363)">
            <g id="Group_1551" data-name="Group 1551" transform="translate(7.176 10.611)">
              <path id="Path_1469" data-name="Path 1469" d="M213.941,103.752l7.75-5.144.941.746c.459.387.913.8.912.8l.079.382c.046.229.09.542.14.848s.093.61.128.838.04.384.04.384l-8.429,3.934-.056-.125c-.032-.081-.091-.192-.16-.324l-.234-.455-.13-.258-.15-.257c-.2-.345-.391-.7-.563-.944Zm6.823-3.853.273.426c.16.258.355.613.559.963s.384.712.525.981l.231.45.593-.291-.236-.461c-.143-.275-.322-.649-.536-1s-.408-.721-.572-.985l-.279-.435Zm-.985.626.263.409c.154.248.341.589.537.924s.369.684.5.942l.222.433.594-.291-.227-.443c-.138-.265-.309-.624-.516-.964s-.392-.693-.549-.946l-.269-.419Zm-.983.626.252.392c.147.237.326.565.514.886s.354.656.483.9l.213.414.593-.291-.218-.424c-.132-.254-.3-.6-.495-.926s-.376-.664-.527-.908l-.258-.4Zm-.985.627.241.375c.141.227.311.541.492.848s.338.627.462.864.2.4.2.4l.594-.291-.209-.406c-.127-.243-.283-.574-.473-.886s-.36-.637-.5-.87l-.247-.384Zm-.984.626.23.358c.135.217.3.516.469.809s.323.6.441.825l.195.378.593-.291-.2-.388c-.121-.232-.27-.549-.453-.847s-.344-.608-.482-.831l-.236-.368Zm-.985.627.22.34c.129.207.282.492.447.771s.307.57.42.786l.186.36.594-.291-.19-.37c-.116-.222-.257-.524-.432-.808s-.328-.58-.46-.793l-.226-.35Zm-.984.626.209.323c.122.2.268.468.425.733s.291.542.4.747l.177.342.594-.291s-.072-.141-.182-.352-.244-.5-.411-.769-.311-.553-.437-.755l-.216-.333Z" transform="translate(-213.941 -98.608)" fill="#fff"/>
            </g>
            <g id="Group_1552" data-name="Group 1552" transform="translate(10.029 18.435)">
              <path id="Path_1470" data-name="Path 1470" d="M223.617,128.8l14.177-3.664s.05.174.107.44.14.618.22.972c.039.177.078.354.115.52s.058.323.081.457c.047.268.078.446.078.446l-14.412,2.506s-.018-.106-.047-.265c-.015-.079-.028-.173-.048-.271s-.049-.2-.073-.307l-.132-.576A2.036,2.036,0,0,0,223.617,128.8Zm12.311-2.458.136.6c.034.151.068.3.093.414s.038.189.038.189l1.4-.274s-.011-.079-.039-.2l-.1-.431-.142-.627Zm-2,.469s.063.283.127.565c.031.141.063.283.087.388s.036.177.036.177l1.4-.275s-.011-.075-.038-.186l-.091-.406-.134-.59Zm-2,.471s.06.265.119.529c.03.132.06.264.082.363s.035.166.035.166l1.4-.276s-.01-.071-.036-.174-.054-.242-.085-.381l-.125-.554Zm-2,.472.111.492c.027.123.055.246.076.338s.032.154.032.154l1.4-.276s-.01-.065-.034-.163l-.08-.356-.116-.518Zm-2,.473.2.911,1.4-.277s-.009-.061-.031-.151l-.075-.331-.108-.481Zm-2,.474.188.838,1.4-.278-.2-.889Z" transform="translate(-223.617 -125.139)" fill="#fff"/>
            </g>
            <g id="Group_1553" data-name="Group 1553" transform="translate(4.2 2.527)">
              <path id="Path_1471" data-name="Path 1471" d="M203.85,80.853l4.569-4.817,4.547-4.838.328.05c.208.035.515.077.866.152.706.146,1.687.343,2.641.623.479.137.977.271,1.423.424s.873.3,1.239.43.672.246.878.333l.33.136-7.114,5.264-7.147,5.219-.1-.142c-.062-.084-.136-.2-.223-.31l-.345-.436,1-.806s-.264-.342-.562-.656l-.395-.444c-.11-.119-.188-.193-.188-.193l-.914.859-.41-.429c-.1-.11-.2-.217-.287-.29Zm5.125.141-.383-.473c-.186-.241-.393-.465-.393-.465L207.1,81l.12.133c.072.08.158.195.25.305l.362.445Zm1.76-1.371-.417-.515c-.2-.262-.428-.506-.428-.506l-1.1.945s.213.231.4.479l.4.488Zm1.757-1.374-.449-.557c-.22-.283-.463-.547-.463-.547l-1.1.948s.231.25.44.52l.428.53Zm1.755-1.377-.483-.6c-.236-.3-.5-.587-.5-.587l-1.1.949s.25.27.474.561l.461.572Zm.7-2.649-1.1.95s.268.29.51.6l.494.614,1.139-.9-.516-.641c-.128-.161-.257-.321-.362-.435Zm-7.216,5.313s-.2-.23-.418-.442l-.426-.434-1.027,1.024.4.409c.207.2.394.417.394.417Zm1.652-1.5-.137-.155c-.083-.092-.2-.207-.317-.326l-.463-.473-1.025,1.025.439.448c.109.112.223.221.3.309l.13.147Zm1.65-1.5-.149-.167-.343-.353-.5-.511-1.023,1.027.476.486c.118.122.24.241.326.336l.141.159Zm1.647-1.506-.16-.18-.369-.379-.537-.55L210.6,74.95l.514.525.352.362.152.171Zm1.644-1.508-.171-.191-.394-.406-.574-.588-1.02,1.031.551.564.378.388.163.184Z" transform="translate(-203.85 -71.198)" fill="#fff"/>
            </g>
            <g id="Group_1554" data-name="Group 1554" transform="translate(9.03 15.23)">
              <path id="Path_1472" data-name="Path 1472" d="M220.229,118.226l4.87-1.993,4.879-1.963-.188.652c-.119.389-.26.892-.442,1.393s-.365.987-.506,1.344c-.068.178-.137.328-.182.432l-.073.163-3.786,1.07-3.781,1.087s-.044-.17-.105-.335l-.113-.332.7-.227-.146-.477-.171-.469-.711.267-.12-.306-.081-.211A.82.82,0,0,0,220.229,118.226Zm6.782-.844.243.768.826-.247-.251-.792Zm-1.258.418.231.732.825-.248-.238-.755Zm-1.257.42.218.7.825-.25-.226-.719Zm-1.256.422.206.659.824-.25-.214-.683Zm-1.256.424.194.623.824-.252-.2-.646Zm4.606-2.877.28.756.814-.284-.29-.779Zm-1.237.475.266.72.814-.285-.276-.743Zm-1.237.476.253.684.813-.286-.262-.707Zm-1.236.478.239.649.812-.288-.248-.672Zm-1.235.479.225.614.812-.289-.234-.636Z" transform="translate(-220.229 -114.27)" fill="#fff"/>
            </g>
            <g id="Group_1555" data-name="Group 1555">
              <path id="Path_1473" data-name="Path 1473" d="M189.61,71.641l2.7-4.513,2.729-4.5.2.244c.127.15.293.386.494.661s.432.59.667.938l.706,1.1c.452.764.881,1.509,1.16,2.1l.343.694c.041.082.071.149.091.2l.031.07-2.7,2.859-2.69,2.871L192.8,73.9l.483-.552-.109-.1c-.069-.061-.165-.152-.29-.247l-.422-.336c-.153-.124-.316-.259-.49-.377-.344-.242-.676-.5-.947-.664l-.44-.288-.409.64-.087-.056a2.172,2.172,0,0,0-.194-.116Zm3.118-.607-.543-.409-.493.706.524.395Zm.989.753-.524-.434-.53.679.5.419Zm3.21-3.1.6.541.583-.635-.617-.557Zm-.866,1,.57.516.582-.636-.588-.532Zm-.865,1,.54.491.581-.637-.56-.507Zm-.863,1,.512.467.579-.637-.53-.483Zm-.862,1.007.484.442.578-.638-.5-.458Zm.018-6.522.5.323c.3.193.7.447,1.081.732l.566.406c.18.131.339.266.479.375l.465.368.554-.661-.479-.38c-.145-.113-.309-.25-.494-.387l-.584-.418c-.2-.14-.394-.291-.587-.414l-.527-.341-.514-.333Zm-.706,1.121.475.308c.284.184.668.424,1.03.7l.54.387c.173.123.323.253.457.357l.443.351.553-.661-.458-.362c-.138-.107-.294-.24-.471-.369l-.557-.4c-.374-.281-.769-.53-1.063-.72l-.489-.318Zm-.705,1.123.451.293c.27.176.636.4.98.662s.7.5.948.707l.421.334.552-.662-.435-.345c-.132-.1-.279-.23-.449-.35l-.531-.38c-.355-.268-.733-.5-1.013-.685l-.466-.3Zm-.7,1.124s.045.025.119.075l.309.2c.256.168.6.38.929.627s.666.471.9.67l.4.317.551-.663-.414-.328c-.242-.2-.587-.448-.931-.694s-.7-.477-.962-.65l-.321-.209c-.077-.051-.122-.078-.122-.078Zm-.7,1.125a.891.891,0,0,1,.086.055l.186.127.271.184.476-.718-.282-.191L191.218,70a1.021,1.021,0,0,0-.089-.058Z" transform="translate(-189.61 -62.63)" fill="#fff"/>
            </g>
            <g id="Group_1556" data-name="Group 1556" transform="translate(10.506 23.756)">
              <path id="Path_1474" data-name="Path 1474" d="M229.882,147.029H225.47l-.013-.416.1,0-.009-.375c0-.112,0-.244-.011-.384s-.023-.288-.035-.438c-.027-.3-.034-.6-.073-.818s-.048-.37-.048-.37l-.1.012-.05-.41,4.364-.65.506.9c.133.227.243.46.329.636l.144.294-.1.322c-.029.1-.063.208-.1.328s-.089.246-.134.374Zm-.167-2.153a.226.226,0,1,0,.034.439.226.226,0,1,0-.034-.439Zm-3,1.713s0-.158-.01-.395c0-.118,0-.257-.011-.4s-.025-.3-.037-.461c-.028-.314-.037-.63-.076-.862l-.051-.389-.655.085.049.378c.039.226.047.532.074.837.013.152.025.3.037.448s.007.278.011.393c.005.23.009.383.009.383Zm1.166-.022s0-.166-.01-.414c0-.125,0-.27-.013-.425s-.025-.32-.038-.484c-.029-.33-.039-.662-.08-.906l-.053-.41-.655.085s.02.159.051.4.05.56.078.881c.012.161.026.321.037.471s.008.292.012.413c.007.242.01.4.01.4Zm1.166-.022s0-.174-.011-.434c-.005-.13,0-.283-.014-.445s-.026-.335-.04-.508c-.03-.346-.041-.693-.085-.95l-.055-.43-.655.085s.021.168.054.418.053.589.082.925c.013.169.026.337.039.495s.008.307.013.434c.006.254.01.423.01.423Z" transform="translate(-225.232 -143.18)" fill="#fff"/>
            </g>
          </g>
        </g>
      </g>
      <g id="Group_1563" data-name="Group 1563" transform="translate(33.198 43.983)">
        <path id="Path_1475" data-name="Path 1475" d="M127.5,110.619a19.108,19.108,0,1,0-19.107,19.1A19.129,19.129,0,0,0,127.5,110.619ZM95.687,121.13c.761-.26,1.594-.494,2.471-.711a18.835,18.835,0,0,0,2.77,4.894A16.615,16.615,0,0,1,95.687,121.13Zm4.359-1.119q1.756-.331,3.739-.523a27.4,27.4,0,0,0,1.781,7.267C103.291,125.637,101.344,123.222,100.046,120.011Zm8.822,7.084c-.161,0-.317.022-.475.022s-.318-.018-.476-.022c-.693-.882-1.625-3.478-2.205-7.748.874-.045,1.76-.077,2.681-.077s1.809.033,2.682.077C110.493,123.616,109.561,126.212,108.868,127.094Zm2.353-.34A27.521,27.521,0,0,0,113,119.487c1.318.128,2.568.3,3.736.523C115.442,123.222,113.5,125.637,111.222,126.755Zm4.633-1.443a18.82,18.82,0,0,0,2.776-4.893c.874.217,1.707.45,2.468.712A16.658,16.658,0,0,1,115.854,125.312ZM101.321,96.1a18.832,18.832,0,0,0-2.77,4.894c-.877-.217-1.711-.45-2.471-.711A16.614,16.614,0,0,1,101.321,96.1Zm4.638-1.442a27.4,27.4,0,0,0-1.781,7.267q-1.98-.192-3.739-.523C101.737,98.187,103.684,95.773,105.959,94.655Zm5.51,7.408c-.874.044-1.76.077-2.682.077s-1.807-.032-2.681-.077c.581-4.27,1.513-6.866,2.205-7.748.158,0,.315-.022.476-.022s.314.018.475.022C109.954,95.2,110.886,97.793,111.469,102.063Zm5.664-.664c-1.168.221-2.418.4-3.736.523a27.525,27.525,0,0,0-1.782-7.267C113.891,95.773,115.835,98.187,117.133,101.4Zm4.359-1.12c-.76.261-1.594.495-2.468.712a18.82,18.82,0,0,0-2.776-4.893A16.657,16.657,0,0,1,121.492,100.279Z" transform="translate(-89.285 -91.512)" fill="#fff"/>
        <g id="Group_1562" data-name="Group 1562" transform="translate(3.169 15.003)">
          <g id="Group_1560" data-name="Group 1560">
            <path id="Path_1476" data-name="Path 1476" d="M100.031,142.59h1.622c.743,0,1.5.178,1.5,1.063a.775.775,0,0,1-.5.773v.031a.926.926,0,0,1,.682.91c0,.789-.732,1.058-1.4,1.058h-1.9Zm1.419,1.475c.2,0,.432-.02.432-.285,0-.285-.259-.264-.463-.264h-.1v.549Zm-.128,1.444h.158c.229,0,.559-.005.559-.32s-.356-.315-.58-.315h-.137Z" transform="translate(-100.031 -142.529)" fill="#097b87"/>
            <path id="Path_1477" data-name="Path 1477" d="M116.238,142.59v2.268c0,1.119-.7,1.628-1.775,1.628s-1.775-.509-1.775-1.628V142.59h1.393v2.136c0,.3.01.565.382.565s.381-.264.381-.565V142.59Z" transform="translate(-108.955 -142.529)" fill="#097b87"/>
            <path id="Path_1478" data-name="Path 1478" d="M126.565,144.905l.071.056a1.464,1.464,0,0,0,.87.351c.138,0,.356-.056.356-.229s-.183-.188-.31-.214l-.28-.051a1.056,1.056,0,0,1-1-1.017,1.522,1.522,0,0,1,1.663-1.419,2.282,2.282,0,0,1,1.215.336l-.376.981a1.447,1.447,0,0,0-.809-.29c-.122,0-.3.046-.3.2,0,.142.173.163.28.188l.315.072c.59.132,1.017.447,1.017,1.1a1.484,1.484,0,0,1-1.663,1.368,3.453,3.453,0,0,1-1.475-.351Z" transform="translate(-118.439 -142.383)" fill="#097b87"/>
            <path id="Path_1479" data-name="Path 1479" d="M138.278,142.59h1.393v3.835h-1.393Z" transform="translate(-126.998 -142.529)" fill="#097b87"/>
            <path id="Path_1480" data-name="Path 1480" d="M145.124,142.59h1.337l1.251,2.126h.04a5.763,5.763,0,0,1-.117-.976V142.59h1.332v3.835h-1.332l-1.225-2.014h-.041a4.5,4.5,0,0,1,.086.768v1.246h-1.332Z" transform="translate(-131.825 -142.529)" fill="#097b87"/>
            <path id="Path_1481" data-name="Path 1481" d="M160.264,142.59h1.394v3.835h-1.394Z" transform="translate(-142.5 -142.529)" fill="#065260"/>
            <path id="Path_1482" data-name="Path 1482" d="M169.694,144a1.244,1.244,0,0,0-.819-.387.751.751,0,0,0-.758.747.766.766,0,0,0,.778.748,1.113,1.113,0,0,0,.8-.356l-.041,1.434a3.087,3.087,0,0,1-.992.153,1.922,1.922,0,0,1-1.948-1.943,1.994,1.994,0,0,1,2-2.014,2.907,2.907,0,0,1,.936.158Z" transform="translate(-147.047 -142.383)" fill="#097b87"/>
            <path id="Path_1483" data-name="Path 1483" d="M178.525,142.59h1.394v3.835h-1.394Z" transform="translate(-155.375 -142.529)" fill="#097b87"/>
            <path id="Path_1484" data-name="Path 1484" d="M184.543,142.59h2.93v1.246l-.768-.036v2.624h-1.394V143.8l-.768.036Z" transform="translate(-159.619 -142.529)" fill="#097b87"/>
            <path id="Path_1485" data-name="Path 1485" d="M196.087,142.59l.427,1h.041c.041-.122.076-.244.127-.361l.275-.641h1.567l-1.313,2.182v1.653h-1.363v-1.653l-1.338-2.182Z" transform="translate(-166.646 -142.529)" fill="#097b87"/>
          </g>
          <g id="Group_1561" data-name="Group 1561" transform="translate(0.626 6.004)">
            <path id="Path_1486" data-name="Path 1486" d="M103.825,162.939v.324h-.637v1.795h-.394v-1.795h-.64v-.324Z" transform="translate(-102.153 -162.881)" fill="#097b87"/>
            <path id="Path_1487" data-name="Path 1487" d="M108.6,164.918v-2.177h.362v.836a.762.762,0,0,1,.193-.135.559.559,0,0,1,.247-.051.545.545,0,0,1,.218.042.436.436,0,0,1,.159.117.521.521,0,0,1,.1.18.766.766,0,0,1,.033.231v.957h-.362v-.957a.321.321,0,0,0-.064-.213.236.236,0,0,0-.191-.076.379.379,0,0,0-.176.043.624.624,0,0,0-.155.116v1.087Z" transform="translate(-106.7 -162.741)" fill="#097b87"/>
            <path id="Path_1488" data-name="Path 1488" d="M114.63,164.947a.727.727,0,0,1,.261.045.57.57,0,0,1,.206.132.61.61,0,0,1,.135.214.812.812,0,0,1,.048.29.561.561,0,0,1,0,.068.111.111,0,0,1-.013.042.054.054,0,0,1-.026.022.106.106,0,0,1-.041.007h-.929a.519.519,0,0,0,.125.34.388.388,0,0,0,.287.109.493.493,0,0,0,.152-.021.719.719,0,0,0,.111-.045l.083-.046a.139.139,0,0,1,.07-.02.079.079,0,0,1,.038.008.083.083,0,0,1,.028.025l.106.132a.607.607,0,0,1-.135.118.782.782,0,0,1-.156.076.879.879,0,0,1-.166.04,1.216,1.216,0,0,1-.163.012.8.8,0,0,1-.292-.052.646.646,0,0,1-.234-.154.722.722,0,0,1-.157-.252.978.978,0,0,1-.057-.348.834.834,0,0,1,.05-.289.691.691,0,0,1,.143-.236.675.675,0,0,1,.227-.159A.754.754,0,0,1,114.63,164.947Zm.007.259a.334.334,0,0,0-.248.09.441.441,0,0,0-.114.253h.68a.449.449,0,0,0-.019-.133.3.3,0,0,0-.059-.109.276.276,0,0,0-.1-.074A.336.336,0,0,0,114.637,165.206Z" transform="translate(-110.44 -164.296)" fill="#097b87"/>
            <path id="Path_1489" data-name="Path 1489" d="M123.429,164a1.144,1.144,0,0,1-.078.428.959.959,0,0,1-.557.554,1.191,1.191,0,0,1-.438.078h-.809v-2.119h.809a1.184,1.184,0,0,1,.438.078,1,1,0,0,1,.339.218.981.981,0,0,1,.218.335A1.143,1.143,0,0,1,123.429,164Zm-.4,0a.974.974,0,0,0-.047-.313.67.67,0,0,0-.133-.235.575.575,0,0,0-.21-.147.726.726,0,0,0-.279-.051h-.412v1.492h.412a.723.723,0,0,0,.279-.051.572.572,0,0,0,.21-.147.668.668,0,0,0,.133-.234A.978.978,0,0,0,123.026,164Z" transform="translate(-115.828 -162.881)" fill="#097b87"/>
            <path id="Path_1490" data-name="Path 1490" d="M129.9,166.462h-.163a.176.176,0,0,1-.081-.015.1.1,0,0,1-.044-.062l-.032-.107a1.2,1.2,0,0,1-.112.09.688.688,0,0,1-.114.065.586.586,0,0,1-.125.04.747.747,0,0,1-.147.013.562.562,0,0,1-.176-.026.373.373,0,0,1-.138-.077.35.35,0,0,1-.09-.128.457.457,0,0,1-.032-.178.352.352,0,0,1,.045-.168.418.418,0,0,1,.149-.15.942.942,0,0,1,.277-.111,1.779,1.779,0,0,1,.429-.044v-.089a.336.336,0,0,0-.064-.225.234.234,0,0,0-.186-.073.451.451,0,0,0-.147.021.549.549,0,0,0-.1.046l-.079.046a.165.165,0,0,1-.081.02.1.1,0,0,1-.063-.019.146.146,0,0,1-.042-.047l-.066-.116a.894.894,0,0,1,.626-.237.606.606,0,0,1,.235.043.494.494,0,0,1,.284.3.706.706,0,0,1,.037.234Zm-.7-.226a.511.511,0,0,0,.1-.01.4.4,0,0,0,.089-.03.487.487,0,0,0,.081-.05.71.71,0,0,0,.078-.07v-.252a1.466,1.466,0,0,0-.265.02.714.714,0,0,0-.171.051.224.224,0,0,0-.092.072.183.183,0,0,0,.029.227A.244.244,0,0,0,129.2,166.237Z" transform="translate(-120.837 -164.285)" fill="#097b87"/>
            <path id="Path_1491" data-name="Path 1491" d="M134.275,165.453a.394.394,0,0,1-.3-.111.424.424,0,0,1-.105-.305V164.2h-.153a.07.07,0,0,1-.072-.076v-.143l.242-.04.076-.41a.074.074,0,0,1,.028-.046.087.087,0,0,1,.053-.016h.187v.473h.4v.258h-.4v.815a.16.16,0,0,0,.035.11.12.12,0,0,0,.094.04.176.176,0,0,0,.056-.008l.04-.017.03-.017a.051.051,0,0,1,.026-.008.041.041,0,0,1,.026.008.111.111,0,0,1,.022.024l.109.176a.546.546,0,0,1-.182.1A.675.675,0,0,1,134.275,165.453Z" transform="translate(-124.357 -163.252)" fill="#097b87"/>
            <path id="Path_1492" data-name="Path 1492" d="M138.952,166.462h-.162a.178.178,0,0,1-.081-.015.1.1,0,0,1-.044-.062l-.032-.107a1.193,1.193,0,0,1-.112.09.687.687,0,0,1-.114.065.59.59,0,0,1-.124.04.75.75,0,0,1-.147.013.559.559,0,0,1-.176-.026.379.379,0,0,1-.139-.077.35.35,0,0,1-.09-.128.46.46,0,0,1-.032-.178.353.353,0,0,1,.045-.168.42.42,0,0,1,.148-.15.942.942,0,0,1,.277-.111,1.779,1.779,0,0,1,.429-.044v-.089a.336.336,0,0,0-.064-.225.234.234,0,0,0-.186-.073.45.45,0,0,0-.147.021.558.558,0,0,0-.1.046l-.08.046a.163.163,0,0,1-.081.02.1.1,0,0,1-.063-.019.155.155,0,0,1-.042-.047l-.066-.116a.9.9,0,0,1,.626-.237.6.6,0,0,1,.235.043.508.508,0,0,1,.175.12.514.514,0,0,1,.109.184.7.7,0,0,1,.038.234Zm-.7-.226a.512.512,0,0,0,.1-.01.409.409,0,0,0,.089-.03.487.487,0,0,0,.081-.05.74.74,0,0,0,.078-.07v-.252a1.466,1.466,0,0,0-.264.02.714.714,0,0,0-.171.051.22.22,0,0,0-.091.072.164.164,0,0,0-.027.09.16.16,0,0,0,.056.137A.243.243,0,0,0,138.249,166.237Z" transform="translate(-127.216 -164.285)" fill="#097b87"/>
            <path id="Path_1493" data-name="Path 1493" d="M143.169,164.918v-2.177h.362v.858a.715.715,0,0,1,.2-.152.58.58,0,0,1,.264-.056.487.487,0,0,1,.4.2.711.711,0,0,1,.114.239,1.212,1.212,0,0,1,.04.327,1.026,1.026,0,0,1-.046.312.768.768,0,0,1-.129.249.605.605,0,0,1-.2.165.588.588,0,0,1-.268.06.545.545,0,0,1-.126-.014.447.447,0,0,1-.1-.039.436.436,0,0,1-.087-.061.722.722,0,0,1-.077-.08l-.016.1a.092.092,0,0,1-.03.054.094.094,0,0,1-.058.016Zm.7-1.246a.37.37,0,0,0-.193.048.561.561,0,0,0-.149.134v.674a.344.344,0,0,0,.134.106.4.4,0,0,0,.158.03.344.344,0,0,0,.148-.031.286.286,0,0,0,.112-.094.466.466,0,0,0,.071-.159.913.913,0,0,0,.025-.226,1.007,1.007,0,0,0-.021-.224.43.43,0,0,0-.061-.149.238.238,0,0,0-.1-.083A.3.3,0,0,0,143.873,163.673Z" transform="translate(-131.072 -162.741)" fill="#097b87"/>
            <path id="Path_1494" data-name="Path 1494" d="M149.817,166.462h-.162a.177.177,0,0,1-.081-.015.1.1,0,0,1-.044-.062l-.032-.107a1.221,1.221,0,0,1-.112.09.689.689,0,0,1-.114.065.59.59,0,0,1-.124.04.75.75,0,0,1-.147.013.561.561,0,0,1-.176-.026.377.377,0,0,1-.139-.077.346.346,0,0,1-.09-.128.457.457,0,0,1-.032-.178.354.354,0,0,1,.044-.168.421.421,0,0,1,.149-.15.938.938,0,0,1,.277-.111,1.778,1.778,0,0,1,.429-.044v-.089a.336.336,0,0,0-.064-.225.234.234,0,0,0-.186-.073.447.447,0,0,0-.146.021.535.535,0,0,0-.1.046l-.08.046a.163.163,0,0,1-.08.02.1.1,0,0,1-.063-.019.152.152,0,0,1-.042-.047l-.066-.116a.9.9,0,0,1,.626-.237.606.606,0,0,1,.235.043.507.507,0,0,1,.175.12.512.512,0,0,1,.109.184.7.7,0,0,1,.037.234Zm-.7-.226a.51.51,0,0,0,.1-.01.4.4,0,0,0,.089-.03.512.512,0,0,0,.081-.05.758.758,0,0,0,.078-.07v-.252a1.465,1.465,0,0,0-.265.02.706.706,0,0,0-.17.051.218.218,0,0,0-.092.072.182.182,0,0,0,.029.227A.243.243,0,0,0,149.115,166.237Z" transform="translate(-134.877 -164.285)" fill="#097b87"/>
            <path id="Path_1495" data-name="Path 1495" d="M154.6,165.263a.093.093,0,0,1-.031.033.078.078,0,0,1-.041.01.129.129,0,0,1-.056-.015l-.07-.033a.688.688,0,0,0-.09-.033.435.435,0,0,0-.12-.015.281.281,0,0,0-.169.045.143.143,0,0,0-.061.119.114.114,0,0,0,.032.081.284.284,0,0,0,.083.058.841.841,0,0,0,.118.045c.044.013.089.027.135.043s.091.034.135.053a.461.461,0,0,1,.118.077.336.336,0,0,1,.115.266.5.5,0,0,1-.04.2.439.439,0,0,1-.116.158.538.538,0,0,1-.188.1.82.82,0,0,1-.257.037.8.8,0,0,1-.152-.014.882.882,0,0,1-.142-.038.818.818,0,0,1-.126-.059.635.635,0,0,1-.1-.073l.083-.138a.122.122,0,0,1,.038-.038.109.109,0,0,1,.056-.013.117.117,0,0,1,.064.019l.069.041a.665.665,0,0,0,.093.041.4.4,0,0,0,.136.019.348.348,0,0,0,.11-.015.234.234,0,0,0,.076-.04.151.151,0,0,0,.044-.058.177.177,0,0,0,.014-.068.122.122,0,0,0-.032-.087.279.279,0,0,0-.083-.059.81.81,0,0,0-.119-.044l-.136-.044a1.274,1.274,0,0,1-.136-.055.46.46,0,0,1-.119-.08.357.357,0,0,1-.084-.119.417.417,0,0,1-.032-.17.429.429,0,0,1,.037-.176.409.409,0,0,1,.108-.146.541.541,0,0,1,.177-.1.734.734,0,0,1,.245-.037.753.753,0,0,1,.283.051.639.639,0,0,1,.212.135Z" transform="translate(-138.407 -164.296)" fill="#097b87"/>
            <path id="Path_1496" data-name="Path 1496" d="M158.741,164.947a.728.728,0,0,1,.261.045.567.567,0,0,1,.206.132.607.607,0,0,1,.135.214.808.808,0,0,1,.049.29.5.5,0,0,1,0,.068.112.112,0,0,1-.013.042.052.052,0,0,1-.026.022.106.106,0,0,1-.041.007h-.929a.517.517,0,0,0,.124.34.389.389,0,0,0,.287.109.491.491,0,0,0,.152-.021.72.72,0,0,0,.111-.045l.084-.046a.137.137,0,0,1,.069-.02.077.077,0,0,1,.038.008.083.083,0,0,1,.028.025l.106.132a.611.611,0,0,1-.135.118.783.783,0,0,1-.156.076.884.884,0,0,1-.165.04,1.225,1.225,0,0,1-.163.012.8.8,0,0,1-.292-.052.647.647,0,0,1-.234-.154.728.728,0,0,1-.157-.252.978.978,0,0,1-.057-.348.822.822,0,0,1,.05-.289.692.692,0,0,1,.143-.236.678.678,0,0,1,.227-.159A.755.755,0,0,1,158.741,164.947Zm.007.259a.334.334,0,0,0-.248.09.44.44,0,0,0-.115.253h.68a.454.454,0,0,0-.019-.133.3.3,0,0,0-.059-.109.278.278,0,0,0-.1-.074A.34.34,0,0,0,158.749,165.206Z" transform="translate(-141.543 -164.296)" fill="#097b87"/>
            <path id="Path_1497" data-name="Path 1497" d="M165.983,164.947a.827.827,0,0,1,.306.054.668.668,0,0,1,.233.154.679.679,0,0,1,.149.243,1.007,1.007,0,0,1,0,.643.7.7,0,0,1-.149.245.65.65,0,0,1-.233.155.887.887,0,0,1-.612,0,.656.656,0,0,1-.235-.155.7.7,0,0,1-.151-.245.988.988,0,0,1,0-.643.656.656,0,0,1,.386-.4A.831.831,0,0,1,165.983,164.947Zm0,1.27a.318.318,0,0,0,.277-.126.632.632,0,0,0,.09-.37.639.639,0,0,0-.09-.37.316.316,0,0,0-.277-.128.321.321,0,0,0-.281.128.637.637,0,0,0-.091.37.63.63,0,0,0,.091.369A.323.323,0,0,0,165.983,166.217Z" transform="translate(-146.632 -164.296)" fill="#097b87"/>
            <path id="Path_1498" data-name="Path 1498" d="M170.921,164.97V163.74l-.13-.021a.138.138,0,0,1-.068-.029.077.077,0,0,1-.026-.062v-.148h.224v-.111a.65.65,0,0,1,.039-.232.469.469,0,0,1,.288-.284.679.679,0,0,1,.234-.038.646.646,0,0,1,.194.028l-.007.182a.054.054,0,0,1-.039.053.331.331,0,0,1-.085.01.449.449,0,0,0-.115.014.194.194,0,0,0-.086.049.217.217,0,0,0-.054.091.465.465,0,0,0-.018.14v.1h.391v.258h-.379v1.232Z" transform="translate(-150.482 -162.793)" fill="#097b87"/>
            <path id="Path_1499" data-name="Path 1499" d="M177.183,164.3a1.1,1.1,0,0,1-.044.322.669.669,0,0,1-.131.245.571.571,0,0,1-.218.155.786.786,0,0,1-.3.054,1.244,1.244,0,0,1-.155-.01,1.339,1.339,0,0,1-.159-.03l.02-.234a.08.08,0,0,1,.024-.052.089.089,0,0,1,.063-.02.3.3,0,0,1,.065.01.414.414,0,0,0,.1.011.421.421,0,0,0,.148-.024.252.252,0,0,0,.108-.077.361.361,0,0,0,.065-.137.828.828,0,0,0,.022-.2v-1.374h.394Z" transform="translate(-154.342 -162.881)" fill="#097b87"/>
            <path id="Path_1500" data-name="Path 1500" d="M181.374,164.947a.824.824,0,0,1,.306.054.651.651,0,0,1,.383.4,1,1,0,0,1,0,.643.694.694,0,0,1-.149.245.652.652,0,0,1-.234.155.887.887,0,0,1-.612,0,.652.652,0,0,1-.235-.155.705.705,0,0,1-.151-.245,1,1,0,0,1,0-.643.687.687,0,0,1,.151-.243.67.67,0,0,1,.235-.154A.83.83,0,0,1,181.374,164.947Zm0,1.27a.319.319,0,0,0,.278-.126.632.632,0,0,0,.09-.37.639.639,0,0,0-.09-.37.317.317,0,0,0-.278-.128.321.321,0,0,0-.281.128.635.635,0,0,0-.091.37.629.629,0,0,0,.091.369A.323.323,0,0,0,181.374,166.217Z" transform="translate(-157.484 -164.296)" fill="#097b87"/>
            <path id="Path_1501" data-name="Path 1501" d="M186.63,166.462v-1.5h.212a.113.113,0,0,1,.077.02.12.12,0,0,1,.03.07l.022.182a.711.711,0,0,1,.189-.22.4.4,0,0,1,.243-.081.316.316,0,0,1,.185.051l-.047.271a.055.055,0,0,1-.019.037.064.064,0,0,1-.04.011.243.243,0,0,1-.06-.011.409.409,0,0,0-.1-.01.306.306,0,0,0-.194.062.476.476,0,0,0-.136.182v.936Z" transform="translate(-161.716 -164.285)" fill="#097b87"/>
            <path id="Path_1502" data-name="Path 1502" d="M191.5,164.918a.089.089,0,0,1-.092-.066l-.029-.145a1,1,0,0,1-.1.1.648.648,0,0,1-.111.073.568.568,0,0,1-.128.048.631.631,0,0,1-.148.017.5.5,0,0,1-.225-.051.506.506,0,0,1-.177-.149.715.715,0,0,1-.114-.241,1.226,1.226,0,0,1-.04-.328,1.031,1.031,0,0,1,.045-.311.756.756,0,0,1,.131-.249.608.608,0,0,1,.2-.165.59.59,0,0,1,.267-.06.526.526,0,0,1,.215.04.57.57,0,0,1,.16.108v-.794h.362v2.177Zm-.482-.265a.371.371,0,0,0,.192-.047.577.577,0,0,0,.149-.133V163.8a.358.358,0,0,0-.134-.105.391.391,0,0,0-.156-.031.348.348,0,0,0-.149.031.29.29,0,0,0-.113.093.45.45,0,0,0-.071.158.908.908,0,0,0-.025.226,1,1,0,0,0,.021.224.436.436,0,0,0,.061.149.229.229,0,0,0,.1.083A.309.309,0,0,0,191.015,164.653Z" transform="translate(-164.328 -162.741)" fill="#097b87"/>
            <path id="Path_1503" data-name="Path 1503" d="M197.351,166.462h-.162a.177.177,0,0,1-.081-.015.1.1,0,0,1-.044-.062l-.032-.107a1.2,1.2,0,0,1-.112.09.7.7,0,0,1-.114.065.587.587,0,0,1-.124.04.751.751,0,0,1-.147.013.564.564,0,0,1-.176-.026.381.381,0,0,1-.138-.077.349.349,0,0,1-.09-.128.457.457,0,0,1-.032-.178.351.351,0,0,1,.045-.168.421.421,0,0,1,.149-.15.937.937,0,0,1,.277-.111,1.782,1.782,0,0,1,.43-.044v-.089a.336.336,0,0,0-.064-.225.233.233,0,0,0-.186-.073.452.452,0,0,0-.147.021.558.558,0,0,0-.1.046l-.08.046a.165.165,0,0,1-.081.02.105.105,0,0,1-.063-.019.152.152,0,0,1-.042-.047l-.066-.116a.9.9,0,0,1,.626-.237.6.6,0,0,1,.235.043.5.5,0,0,1,.175.12.517.517,0,0,1,.109.184.706.706,0,0,1,.037.234Zm-.7-.226a.515.515,0,0,0,.1-.01.409.409,0,0,0,.089-.03.5.5,0,0,0,.081-.05.743.743,0,0,0,.078-.07v-.252a1.469,1.469,0,0,0-.265.02.72.72,0,0,0-.171.051.225.225,0,0,0-.092.072.182.182,0,0,0,.029.227A.243.243,0,0,0,196.648,166.237Z" transform="translate(-168.392 -164.285)" fill="#097b87"/>
            <path id="Path_1504" data-name="Path 1504" d="M201.553,166.473v-1.5h.222a.089.089,0,0,1,.092.066l.025.119a.85.85,0,0,1,.1-.085.684.684,0,0,1,.107-.066.556.556,0,0,1,.121-.042.642.642,0,0,1,.141-.015.541.541,0,0,1,.218.042.428.428,0,0,1,.159.117.518.518,0,0,1,.1.18.776.776,0,0,1,.033.231v.956H202.5v-.956a.321.321,0,0,0-.064-.213.236.236,0,0,0-.191-.075.377.377,0,0,0-.176.042.628.628,0,0,0-.155.116v1.087Z" transform="translate(-172.238 -164.296)" fill="#097b87"/>
          </g>
        </g>
      </g>
      <path id="Path_1505" data-name="Path 1505" d="M71.812,162.383s1.043,20.293,22.677,21.87l.006.389-.393-.015s-19.169.414-22.781-22.209Z" transform="translate(-43.421 -97.499)" fill="#fff"/>
      <path id="Path_1506" data-name="Path 1506" d="M178.613,162.383s-1.043,20.293-22.677,21.87l-.006.389.393-.015s19.169.414,22.781-22.209Z" transform="translate(-103.077 -97.499)" fill="#fff"/>
    </g>
    <g id="Group_11214" data-name="Group 11214" transform="translate(653.472 1059.411)">
      <g id="Group_1546-2" data-name="Group 1546" transform="translate(0 0)">
        <g id="Jordan-2" data-name="Jordan" transform="translate(0)">
          <g id="Group_1545-2" data-name="Group 1545" transform="translate(0)">
            <g id="Group_1544-2" data-name="Group 1544">
              <g id="Group_1543-2" data-name="Group 1543" clip-path="url(#clip-path-2)">
                <rect id="Rectangle_1658-2" data-name="Rectangle 1658" width="4.255" height="7.293" transform="translate(0 3.97) rotate(-68.943)" fill="url(#linear-gradient-2)"/>
                <rect id="Rectangle_1659-2" data-name="Rectangle 1659" width="1.418" height="7.293" transform="translate(0.51 2.647) rotate(-68.943)" fill="#fff"/>
                <rect id="Rectangle_1660-2" data-name="Rectangle 1660" width="1.418" height="7.293" transform="translate(0 3.97) rotate(-68.943)" fill="url(#linear-gradient-3)"/>
                <path id="Path_1467-2" data-name="Path 1467" d="M189.386,40.133l-1.529,3.97,4.735-.457Z" transform="translate(-187.857 -40.133)" fill="url(#linear-gradient-4)"/>
                <path id="Path_1468-2" data-name="Path 1468" d="M193.571,46.954l-.121.132-.142-.111.028.177-.175.042.156.089-.077.163.167-.066.08.161.052-.172.176.039-.1-.148.14-.113-.179-.013Z" transform="translate(-191.471 -44.78)" fill="#fff"/>
              </g>
            </g>
          </g>
        </g>
      </g>
      <g id="Group_1547" data-name="Group 1547" transform="translate(3.082 1.208)" style="mix-blend-mode: multiply;isolation: isolate">
        <rect id="Rectangle_1661" data-name="Rectangle 1661" width="4.202" height="3.995" transform="translate(0 3.921) rotate(-68.943)" fill="url(#linear-gradient-5)"/>
      </g>
    </g>
  </g>
</svg>
