<svg xmlns="http://www.w3.org/2000/svg" width="126.211" height="126.212" viewBox="0 0 126.211 126.212">
  <g id="Group_11264" data-name="Group 11264" transform="translate(-556 -387.787)">
    <path id="Path_43788" data-name="Path 43788" d="M144.377,138H175.93v7.888H144.377Zm0,67.05h15.777v-7.888H144.377Zm0-39.441h35.5v-7.888h-35.5Zm0,19.721H164.1v-7.888H144.377Zm35.5,43.386v7.888H128.6a11.844,11.844,0,0,1-11.832-11.832V138A11.842,11.842,0,0,1,128.6,126.17v-3.944a7.886,7.886,0,0,1,7.888-7.888h51.948a7.9,7.9,0,0,1,5.581,2.307l26.931,26.935a7.891,7.891,0,0,1,2.311,5.577v12.511h-7.888v-7.888H195.651a11.844,11.844,0,0,1-11.832-11.832V122.226h-47.33v94.659h31.553v7.888H136.489a7.889,7.889,0,0,1-7.888-7.888V134.059A3.946,3.946,0,0,0,124.656,138c0,88.944,1.767,90.715,3.944,90.715Zm11.832-103.226v16.455a3.948,3.948,0,0,0,3.944,3.944H212.1Zm50.118,108.326a3.944,3.944,0,1,1-5.577,5.577l-17.339-17.338a31.671,31.671,0,1,1,5.577-5.577ZM223.26,197.165a23.665,23.665,0,1,0-23.665,23.665A23.691,23.691,0,0,0,223.26,197.165Z" transform="translate(439.232 273.449)" fill="#9e9e9e"/>
    <g id="Group_11263" data-name="Group 11263" transform="translate(27.435 -75.035)">
      <path id="Path_43789" data-name="Path 43789" d="M601.372,613.053l-.807-.858a14.227,14.227,0,0,1,8.323-6.333c5.644-1.469,10.753,1.214,13.721,5.963.3.475.272.491-.593,1.142A12.087,12.087,0,0,0,611.767,608,13.053,13.053,0,0,0,601.372,613.053Z" transform="translate(0 -58.383)" fill="#9e9e9e"/>
      <path id="Path_43790" data-name="Path 43790" d="M628.228,538.625a4.049,4.049,0,0,1-.986,2.834,1.91,1.91,0,0,1-2.989.009,4.622,4.622,0,0,1,.024-5.748,1.9,1.9,0,0,1,2.987.058A4.137,4.137,0,0,1,628.228,538.625Z" transform="translate(-18.791 -0.074)" fill="#9e9e9e"/>
      <path id="Path_43791" data-name="Path 43791" d="M679.112,538.39a14.757,14.757,0,0,1,1.135-2.587,1.86,1.86,0,0,1,3.073-.108,4.632,4.632,0,0,1-.005,5.682,1.911,1.911,0,0,1-3.043-.039,4.066,4.066,0,0,1-.936-2.852Z" transform="translate(-65.026)" fill="#9e9e9e"/>
    </g>
  </g>
</svg>
